:FULLY-SPECIFIED
:FORCE-ALL-JOINTS-BE-3DOF
:DEGREES
146
root 8.62181 15.9554 -16.3569 6.47813 8.4081 3.55909
lfemur 26.3671 5.39196 -18.19
ltibia 3.64765 0 0
lfoot 5.81757 -1.39412 -0.00912847
ltoes -15.739 0 0
rfemur -41.3766 2.08756 15.7198
rtibia 39.4228 -0 0
rfoot -6.33494 -3.69787 -0.00429185
rtoes -15.9865 0 0
lowerback -6.75921 -3.29104 -4.32046
upperback -1.19134 -4.13917 2.25597
thorax 3.02402 -2.11836 4.3685
lowerneck -19.3406 -5.90736 -13.8915
upperneck 17.3831 -6.9612 12.9293
head 9.65596 -2.81217 5.86125
lclavicle 1.57785e-15 1.43125e-14 0
lhumerus -35.3067 -1.56165 91.1426
lradius 18.7529 -0 0
lwrist -10.9966 0 0
lhand -12.9802 -23.6642 0.0388195
lfingers 7.12502 0 0
lthumb 13.1106 5.87715 0.0298649
rclavicle 1.57785e-15 1.43125e-14 0
rhumerus -48.2219 4.22917 -81.8113
rradius 28.9715 -0 0
rwrist -15.5792 0 0
rhand -30.3621 -22.3026 0.0146968
rfingers 7.12502 0 0
rthumb -3.66713 -52.2509 0.0141802
147
root 8.59477 15.9931 -16.2025 6.53482 8.57899 3.1723
lfemur 24.8148 5.68932 -17.429
ltibia 7.2953 0 0
lfoot 6.46721 -1.16677 -0.0125361
ltoes -14.6538 0 0
rfemur -40.8508 1.9229 16.4236
rtibia 39.5147 -0 0
rfoot -6.75083 -3.3175 -0.00663941
rtoes -15.5814 0 0
lowerback -6.64021 -3.30873 -3.93009
upperback -1.23071 -4.19735 2.34893
thorax 2.90089 -2.14066 4.24849
lowerneck -19.4773 -5.90701 -13.8034
upperneck 17.2976 -6.97009 12.9709
head 9.65061 -2.80115 5.85695
lclavicle 6.70898e-15 1.19271e-14 0
lhumerus -35.6903 0.0689503 90.1964
lradius 18.0848 -0 0
lwrist -11.9158 0 0
lhand -11.1998 -22.7872 0.0986337
lfingers 7.12502 0 0
lthumb 14.8237 6.59941 0.0776826
rclavicle 6.70898e-15 1.19271e-14 0
rhumerus -48.0027 4.10268 -81.5986
rradius 28.7762 -0 0
rwrist -14.8992 0 0
rhand -29.9554 -22.0986 0.0168139
rfingers 7.12502 0 0
rthumb -3.27437 -52.0518 0.0161529
148
root 8.56772 16.0307 -16.048 6.60477 8.79746 2.75036
lfemur 22.8905 5.99232 -16.6486
ltibia 10.9429 0 0
lfoot 6.88491 -0.934644 -0.0105987
ltoes -13.3508 0 0
rfemur -40.2531 1.75111 17.1419
rtibia 39.472 -0 0
rfoot -7.25219 -2.98825 -0.00679714
rtoes -15.2716 0 0
lowerback -6.5269 -3.33971 -3.49812
upperback -1.27555 -4.27482 2.4498
thorax 2.77511 -2.17244 4.11092
lowerneck -19.661 -5.91185 -13.6965
upperneck 17.2514 -6.98797 13.0051
head 9.66815 -2.79222 5.84631
lclavicle 1.18401e-14 9.54166e-15 0
lhumerus -36.1113 1.55773 89.2696
lradius 17.5252 -0 0
lwrist -12.6382 0 0
lhand -8.90646 -21.6058 0.133094
lfingers 7.12502 0 0
lthumb 17.0303 7.58344 0.105762
rclavicle 1.18401e-14 9.54166e-15 0
rhumerus -47.7576 3.97727 -81.3812
rradius 28.5983 -0 0
rwrist -14.1854 0 0
rhand -29.3758 -22.1097 0.0110318
rfingers 7.12502 0 0
rthumb -2.71463 -52.0695 0.0105167
149
root 8.54067 16.0684 -15.8936 6.68371 9.03092 2.31927
lfemur 20.7643 6.29749 -15.8971
ltibia 14.5906 0 0
lfoot 7.15075 -0.635719 -0.00551842
ltoes -12.1322 0 0
rfemur -39.6088 1.58919 17.8499
rtibia 39.3191 -0 0
rfoot -7.78715 -2.69584 -0.00517513
rtoes -15.0077 0 0
lowerback -6.41599 -3.36851 -3.05968
upperback -1.32373 -4.34842 2.55542
thorax 2.64716 -2.20264 3.9746
lowerneck -19.8535 -5.92703 -13.5984
upperneck 17.2181 -7.01944 13.0441
head 9.69469 -2.78937 5.8372
lclavicle 1.69712e-14 7.15625e-15 0
lhumerus -36.5595 2.76664 88.4616
lradius 17.093 -0 0
lwrist -13.13 0 0
lhand -6.50776 -20.3512 0.117026
lfingers 7.12502 0 0
lthumb 19.3383 8.63252 0.0933748
rclavicle 1.69712e-14 7.15625e-15 0
rhumerus -47.5077 3.88521 -81.1829
rradius 28.468 -0 0
rwrist -13.5562 0 0
rhand -28.7653 -22.2726 0.00352144
rfingers 7.12502 0 0
rthumb -2.12498 -52.2392 0.00327661
150
root 8.51363 16.106 -15.7392 6.76801 9.24671 1.90505
lfemur 18.6054 6.59343 -15.2208
ltibia 18.2382 0 0
lfoot 7.34478 -0.208044 -0.000534321
ltoes -11.3004 0 0
rfemur -38.9429 1.4553 18.5237
rtibia 39.0803 -0 0
rfoot -8.30385 -2.42603 -0.00256587
rtoes -14.7402 0 0
lowerback -6.30389 -3.37955 -2.64983
upperback -1.37301 -4.39501 2.66261
thorax 2.51744 -2.22008 3.8583
lowerneck -20.0167 -5.95806 -13.5365
upperneck 17.1712 -7.06903 13.0999
head 9.71631 -2.79655 5.83748
lclavicle 2.21024e-14 4.77083e-15 0
lhumerus -37.0175 3.55954 87.8751
lradius 16.8068 -0 0
lwrist -13.3576 0 0
lhand -4.41158 -19.2552 0.0594424
lfingers 7.12502 0 0
lthumb 21.3555 9.54934 0.0474959
rclavicle 2.21024e-14 4.77083e-15 0
rhumerus -47.2736 3.8591 -81.027
rradius 28.4157 -0 0
rwrist -13.1298 0 0
rhand -28.2657 -22.5236 -0.00089315
rfingers 7.12502 0 0
rthumb -1.64249 -52.4958 -0.000921317
151
root 8.48658 16.1437 -15.5848 6.8547 9.412 1.53366
lfemur 16.583 6.86119 -14.6629
ltibia 21.8859 0 0
lfoot 7.54703 0.410312 0
ltoes -11.1576 0 0
rfemur -38.2796 1.36876 19.1399
rtibia 38.7801 0 0
rfoot -8.75045 -2.16453 0
rtoes -14.4194 0 0
lowerback -6.1868 -3.35719 -2.3036
upperback -1.42108 -4.39145 2.7681
thorax 2.38629 -2.21351 3.78076
lowerneck -20.1124 -6.01062 -13.5385
upperneck 17.0845 -7.1412 13.1849
head 9.7191 -2.81776 5.85501
lclavicle 2.72335e-14 2.38542e-15 0
lhumerus -37.4658 3.80233 87.6165
lradius 16.6855 0 0
lwrist -13.2871 0 0
lhand -3.02465 -18.5477 0
lfingers 7.12502 0 0
lthumb 22.6903 10.1383 0
rclavicle 2.72335e-14 2.38542e-15 0
rhumerus -47.0759 3.93182 -80.9366
rradius 28.4715 0 0
rwrist -13.0243 0 0
rhand -28.019 -22.7991 0
rfingers 7.12502 0 0
rthumb -1.40429 -52.7742 0
152
root 8.46073 16.1861 -15.4508 6.94778 9.53207 1.19352
lfemur 14.6339 7.08597 -14.2082
ltibia 25.373 -0 0
lfoot 7.77456 1.27033 0.00275218
ltoes -12.025 0 0
rfemur -37.6048 1.34717 19.7063
rtibia 38.3874 -0 0
rfoot -9.13284 -1.92418 0.00165371
rtoes -13.994 0 0
lowerback -6.06033 -3.29772 -2.01482
upperback -1.4687 -4.33348 2.87837
thorax 2.25014 -2.18066 3.74608
lowerneck -20.1465 -6.0945 -13.618
upperneck 16.9624 -7.24609 13.3045
head 9.70805 -2.85783 5.89249
lclavicle 2.12741e-14 -5.30083e-16 0
lhumerus -37.8855 3.34955 87.7716
lradius 16.7481 -0 0
lwrist -12.8414 0 0
lhand -2.43471 -18.2668 -0.031451
lfingers 7.12502 0 0
lthumb 23.2582 10.3699 -0.0250324
rclavicle 2.12741e-14 -5.30083e-16 0
rhumerus -46.9218 4.11812 -80.9276
rradius 28.6565 -0 0
rwrist -13.3431 0 0
rhand -28.0835 -23.1508 0.005516
rfingers 7.12502 0 0
rthumb -1.46658 -53.1256 0.00533459
153
root 8.43488 16.2285 -15.3169 7.05085 9.63428 0.861576
lfemur 12.6092 7.27511 -13.8167
ltibia 28.8646 -0 0
lfoot 7.96694 2.33268 0.0121388
ltoes -13.7251 0 0
rfemur -36.895 1.37878 20.2444
rtibia 37.8767 -0 0
rfoot -9.49369 -1.71894 0.00228981
rtoes -13.4933 0 0
lowerback -5.92634 -3.21283 -1.75412
upperback -1.5177 -4.23871 2.99721
thorax 2.10795 -2.12994 3.74003
lowerneck -20.1505 -6.20724 -13.7558
upperneck 16.8268 -7.38201 13.4502
head 9.69526 -2.91456 5.94419
lclavicle 1.53147e-14 -3.44559e-15 0
lhumerus -38.2862 2.28476 88.282
lradius 16.9836 -0 0
lwrist -12.0321 0 0
lhand -2.33381 -18.236 -0.0406291
lfingers 7.12502 0 0
lthumb 23.3556 10.3948 -0.0322374
rclavicle 1.53147e-14 -3.44559e-15 0
rhumerus -46.7962 4.3951 -80.9841
rradius 28.9506 -0 0
rwrist -14.0123 0 0
rhand -28.3572 -23.64 0.0119121
rfingers 7.12502 0 0
rthumb -1.73096 -53.6122 0.0114888
154
root 8.40902 16.2709 -15.1829 7.16072 9.71885 0.546543
lfemur 10.5487 7.43727 -13.4935
ltibia 32.2947 -0 0
lfoot 8.0877 3.52377 0.0207553
ltoes -15.8119 0 0
rfemur -36.1603 1.43999 20.7515
rtibia 37.2801 -0 0
rfoot -9.83631 -1.53626 0.00203265
rtoes -12.9889 0 0
lowerback -5.79046 -3.10984 -1.52171
upperback -1.56735 -4.11692 3.11739
thorax 1.96394 -2.06608 3.75374
lowerneck -20.1247 -6.33609 -13.9301
upperneck 16.6772 -7.5356 13.6134
head 9.67747 -2.98131 6.0053
lclavicle 9.35531e-15 -6.36109e-15 0
lhumerus -38.6974 0.817517 89.0372
lradius 17.3652 -0 0
lwrist -10.9585 0 0
lhand -2.53429 -18.3617 -0.0339709
lfingers 7.12502 0 0
lthumb 23.1629 10.2893 -0.0268093
rclavicle 9.35531e-15 -6.36109e-15 0
rhumerus -46.6866 4.73922 -81.0819
rradius 29.3226 -0 0
rwrist -14.8843 0 0
rhand -28.7421 -24.2174 0.0153231
rfingers 7.12502 0 0
rthumb -2.10261 -54.1857 0.0147632
155
root 8.38317 16.3134 -15.0489 7.27423 9.78591 0.257139
lfemur 8.49264 7.58009 -13.2436
ltibia 35.5971 -0 0
lfoot 8.10005 4.76994 0.0234767
ltoes -17.8396 0 0
rfemur -35.4117 1.5075 21.2242
rtibia 36.6299 -0 0
rfoot -10.164 -1.36355 0.00120562
rtoes -12.5524 0 0
lowerback -5.65839 -2.99601 -1.31785
upperback -1.61699 -3.97787 3.23168
thorax 1.82229 -1.99386 3.7784
lowerneck -20.0695 -6.46826 -14.1189
upperneck 16.5132 -7.69353 13.7851
head 9.65144 -3.05145 6.07104
lclavicle 3.39591e-15 -9.27659e-15 0
lhumerus -39.1447 -0.843701 89.9255
lradius 17.866 -0 0
lwrist -9.71997 0 0
lhand -2.84858 -18.5504 -0.0202155
lfingers 7.12502 0 0
lthumb 22.8605 10.129 -0.0157848
rclavicle 3.39591e-15 -9.27659e-15 0
rhumerus -46.5805 5.12682 -81.1964
rradius 29.7414 -0 0
rwrist -15.8114 0 0
rhand -29.1397 -24.8333 0.0136832
rfingers 7.12502 0 0
rthumb -2.48663 -54.7976 0.013182
156
root 8.35732 16.3558 -14.915 7.38822 9.83552 0.00206443
lfemur 6.48124 7.71045 -13.0725
ltibia 38.7058 -0 0
lfoot 7.96699 5.99755 0.0171811
ltoes -19.3625 0 0
rfemur -34.66 1.55835 21.6588
rtibia 35.9582 -0 0
rfoot -10.4801 -1.18825 0.00030813
rtoes -12.2556 0 0
lowerback -5.53591 -2.87856 -1.14286
upperback -1.66602 -3.83134 3.3329
thorax 1.6872 -1.9181 3.80524
lowerneck -19.9853 -6.59094 -14.3006
upperneck 16.3344 -7.8425 13.9565
head 9.61395 -3.11833 6.13662
lclavicle -2.56349e-15 -1.21921e-14 0
lhumerus -39.6437 -2.49146 90.8336
lradius 18.4596 -0 0
lwrist -8.41589 0 0
lhand -3.08911 -18.7085 -0.00691394
lfingers 7.12502 0 0
lthumb 22.6289 9.99017 -0.00526023
rclavicle -2.56349e-15 -1.21921e-14 0
rhumerus -46.4646 5.53419 -81.3033
rradius 30.1756 -0 0
rwrist -16.6459 0 0
rhand -29.4519 -25.4386 0.00753645
rfingers 7.12502 0 0
rthumb -2.78812 -55.3997 0.00726543
157
root 8.33147 16.3982 -14.781 7.49949 9.86769 -0.209987
lfemur 4.55473 7.83466 -12.9864
ltibia 41.5549 0 0
lfoot 7.65133 7.13305 0
ltoes -19.9346 0 0
rfemur -33.917 1.56984 22.0505
rtibia 35.2974 0 0
rfoot -10.7879 -0.997787 0
rtoes -12.17 0 0
lowerback -5.42884 -2.76468 -0.997089
upperback -1.71395 -3.68714 3.41386
thorax 1.56281 -1.84367 3.8255
lowerneck -19.8728 -6.69141 -14.453
upperneck 16.1407 -7.96927 14.1185
head 9.5618 -3.17531 6.19727
lclavicle -8.52289e-15 -1.51076e-14 0
lhumerus -40.1972 -3.91995 91.6454
lradius 19.119 0 0
lwrist -7.14562 0 0
lhand -3.0682 -18.7424 0
lfingers 7.12502 0 0
lthumb 22.6485 9.94867 0
rclavicle -8.52289e-15 -1.51076e-14 0
rhumerus -46.3257 5.93757 -81.3779
rradius 30.5941 0 0
rwrist -17.2404 0 0
rhand -29.5804 -25.9837 0
rfingers 7.12502 0 0
rthumb -2.91223 -55.9435 0
